<?xml version="1.0" encoding="utf-8"?>
<!-- Generator: Adobe Illustrator 16.0.0, SVG Export Plug-In . SVG Version: 6.00 Build 0)  -->
<!DOCTYPE svg PUBLIC "-//W3C//DTD SVG 1.1//EN" "http://www.w3.org/Graphics/SVG/1.1/DTD/svg11.dtd">
<svg version="1.1" id="Layer_1" xmlns="http://www.w3.org/2000/svg" xmlns:xlink="http://www.w3.org/1999/xlink" x="0px" y="0px"
	 width="453.469px" height="512px" viewBox="0 0 453.469 512" enable-background="new 0 0 453.469 512" xml:space="preserve">
<polygon opacity="0.2" fill="#FFFFFF" points="137.5,191 37.5,330 35.254,349.5 413.355,349.5 418.5,338.5 318.5,191 311.5,295.5 
	311.5,340 140,343.5 "/>
<path opacity="0.2" fill="#FFFFFF" d="M205.167,500.501c0,0-55.333-92.966,6.667-106.667s48.667,1.334,56.667,12.667
	s2.667,82.501-22,94C246.5,500.501,237.167,474.501,205.167,500.501z"/>
<circle opacity="0.2" fill="#FFFFFF" cx="225.264" cy="231.024" r="50.569"/>
<g>
	<path fill="#FFFFFF" d="M284.871,228.766c0-31.984-26.02-58-58-58s-58,26.016-58,58c0,31.98,26.02,58,58,58
		S284.871,260.746,284.871,228.766z M226.871,266.766c-20.953,0-38-17.047-38-38s17.047-38,38-38s38,17.047,38,38
		S247.824,266.766,226.871,266.766z"/>
	<path fill="#FFFFFF" d="M321.109,175.059c-0.359-0.523-0.781-0.992-1.227-1.43C308.488,110.695,279.551,52.055,235.582,4.23
		C233.73,1.609,230.699,0,227.41,0h-0.113c-3.289,0-6.32,1.609-8.168,4.23c-43.949,47.805-72.887,106.414-84.285,169.316
		c-0.477,0.457-0.914,0.969-1.305,1.531L27.016,329.184c-1.156,1.672-1.777,3.656-1.777,5.688v15.051c0,5.52,4.48,10,10,10h53.152
		v65.246c0,5.52,4.477,10,10,10s10-4.48,10-10v-65.246h25.164l20.121,35.176c1.781,3.113,5.094,5.035,8.68,5.035h21.398
		c-8.738,10.109-14.043,23.266-14.043,37.645c0,0.559,0.008,1.117,0.02,1.582c0.559,28.52,16.16,53.27,29.152,69.004
		c1.793,2.176,4.418,3.492,7.234,3.625c0.16,0.008,0.316,0.012,0.477,0.012c2.645,0,5.191-1.051,7.07-2.93l13.691-13.688
		l13.621,13.621c1.992,1.992,4.73,3.035,7.547,2.918c2.813-0.133,5.438-1.445,7.234-3.617c13.016-15.754,28.656-40.5,29.215-68.852
		c0.016-0.555,0.027-1.113,0.027-1.676c0-14.379-5.305-27.539-14.047-37.645h21.508c3.594,0,6.914-1.93,8.691-5.055l20.016-35.156
		h24.184v65.246c0,5.52,4.477,10,10,10s10-4.48,10-10v-65.246h54c5.523,0,10-4.48,10-10v-15.094c0-2.031-0.617-4.012-1.773-5.684
		L321.109,175.059z M149.355,234.531c0-43.285,8.668-85.52,25.133-124.531h105.73c9.609,22.758,16.543,46.617,20.668,71.141
		c0.039,0.313,0.09,0.621,0.156,0.926c2.844,17.215,4.313,34.75,4.313,52.465v105.391h-156V234.531z M227.355,25.051
		C244.629,45.016,259.227,66.832,270.953,90h-87.195C195.48,66.832,210.078,45.016,227.355,25.051z M45.238,337.988l84.664-122.477
		c-0.348,6.316-0.547,12.656-0.547,19.02v105.391H45.238V337.988z M265,437.777c0,0.371-0.008,0.738-0.02,1.191
		c-0.359,18.164-8.895,35.004-17.93,47.82l-12.625-12.625c-3.906-3.902-10.238-3.902-14.145,0l-12.68,12.684
		c-9.008-12.813-17.516-29.676-17.875-47.973c-0.012-0.363-0.02-0.73-0.02-1.098c0-20.762,16.891-37.648,37.648-37.648
		S265,417.02,265,437.777z M286.648,380.133H168.156l-11.563-20.211h141.563L286.648,380.133z M409.355,339.922h-84V234.531
		c0-6.336-0.195-12.648-0.543-18.938l84.543,122.352V339.922z"/>
	<path fill="#FFFFFF" d="M403.355,399.082c-5.523,0-10,4.48-10,10V502c0,5.52,4.477,10,10,10s10-4.48,10-10v-92.918
		C413.355,403.563,408.879,399.082,403.355,399.082z"/>
	<path fill="#FFFFFF" d="M355.355,455.168c-2.629,0-5.211,1.07-7.07,2.93s-2.93,4.438-2.93,7.07c0,2.629,1.07,5.211,2.93,7.07
		s4.441,2.93,7.07,2.93s5.211-1.07,7.07-2.93s2.93-4.441,2.93-7.07c0-2.633-1.07-5.211-2.93-7.07S357.984,455.168,355.355,455.168z"
		/>
	<path fill="#FFFFFF" d="M50.391,399.082c-5.523,0-10,4.48-10,10V502c0,5.52,4.477,10,10,10s10-4.48,10-10v-92.918
		C60.391,403.563,55.914,399.082,50.391,399.082z"/>
	<path fill="#FFFFFF" d="M98.395,455.168c-2.641,0-5.211,1.07-7.07,2.93c-1.871,1.859-2.93,4.438-2.93,7.07
		c0,2.629,1.059,5.211,2.93,7.07c1.859,1.859,4.441,2.93,7.07,2.93s5.199-1.07,7.07-2.93c1.859-1.859,2.922-4.441,2.922-7.07
		c0-2.633-1.063-5.211-2.922-7.07S101.023,455.168,98.395,455.168z"/>
	<path fill="#FFFFFF" d="M402.801,44.504c5.523,0,10-4.48,10-10V20.051c0-5.523-4.477-10-10-10s-10,4.477-10,10v14.453
		C392.801,40.023,397.277,44.504,402.801,44.504z"/>
	<path fill="#FFFFFF" d="M443.469,49.559h-16.383c-5.523,0-10,4.477-10,10c0,5.52,4.477,10,10,10h16.383c5.523,0,10-4.48,10-10
		C453.469,54.035,448.992,49.559,443.469,49.559z"/>
	<path fill="#FFFFFF" d="M362.688,69.559h15.254c5.523,0,10-4.48,10-10c0-5.523-4.477-10-10-10h-15.254c-5.523,0-10,4.477-10,10
		C352.688,65.078,357.164,69.559,362.688,69.559z"/>
	<path fill="#FFFFFF" d="M402.801,109.063c5.523,0,10-4.477,10-10V87.426c0-5.523-4.477-10-10-10s-10,4.477-10,10v11.637
		C392.801,104.586,397.277,109.063,402.801,109.063z"/>
	<path fill="#FFFFFF" d="M50.113,117.945c5.523,0,10-4.477,10-10V93.492c0-5.52-4.477-10-10-10s-10,4.48-10,10v14.453
		C40.113,113.469,44.59,117.945,50.113,117.945z"/>
	<path fill="#FFFFFF" d="M74.395,143h16.387c5.523,0,10-4.477,10-10s-4.477-10-10-10H74.395c-5.523,0-10,4.477-10,10
		S68.871,143,74.395,143z"/>
	<path fill="#FFFFFF" d="M35.254,133c0-5.523-4.477-10-10-10H10c-5.523,0-10,4.477-10,10s4.477,10,10,10h15.254
		C30.777,143,35.254,138.523,35.254,133z"/>
	<path fill="#FFFFFF" d="M50.113,182.508c5.523,0,10-4.48,10-10v-11.641c0-5.52-4.477-10-10-10s-10,4.48-10,10v11.641
		C40.113,178.027,44.59,182.508,50.113,182.508z"/>
</g>
</svg>
