<?xml version="1.0" encoding="utf-8"?>
<!-- Generator: Adobe Illustrator 16.0.0, SVG Export Plug-In . SVG Version: 6.00 Build 0)  -->
<!DOCTYPE svg PUBLIC "-//W3C//DTD SVG 1.1//EN" "http://www.w3.org/Graphics/SVG/1.1/DTD/svg11.dtd">
<svg version="1.1" id="Layer_1" xmlns="http://www.w3.org/2000/svg" xmlns:xlink="http://www.w3.org/1999/xlink" x="0px" y="0px"
	 width="524px" height="524px" viewBox="0 0 524 524" enable-background="new 0 0 524 524" xml:space="preserve">
<g>
	<path fill-rule="evenodd" clip-rule="evenodd" fill="#797979" d="M462.625,488c-127.75,0-255.5,0-383.25,0
		c-0.349-0.242-0.667-0.627-1.049-0.707c-16.871-3.541-27.11-13.698-30.637-30.599c-0.081-0.388-0.453-0.714-0.689-1.069
		c0-113.75,0-227.5,0-341.25c0.234-0.357,0.591-0.686,0.686-1.076c4.96-20.576,18.278-31.152,39.373-31.185
		c17.645-0.027,35.289-0.006,52.933-0.006c1.561,0,3.12,0,5.117,0c0-8.013,0.387-15.581-0.101-23.092
		C144.435,50.209,147.211,43.699,155.5,40c2.333,0,4.667,0,7,0c7.938,3.674,11.247,9.856,10.452,18.55
		c-0.356,3.896-0.061,7.85-0.061,11.778c0,3.858,0,7.716,0,11.504c28.414,0,56.133,0,84.217,0c0-7.807,0.381-15.366-0.099-22.872
		C256.447,50.175,259.233,43.686,267.5,40c2.333,0,4.666,0,7,0c7.938,3.674,11.247,9.856,10.452,18.55
		c-0.356,3.895-0.061,7.85-0.061,11.778c0,3.858,0,7.716,0,11.504c28.414,0,56.132,0,84.217,0c0-7.807,0.381-15.366-0.099-22.871
		C368.446,50.175,371.223,43.68,379.5,40c2.334,0,4.666,0,7,0c8.209,3.752,11.078,10.215,10.494,19.036
		c-0.496,7.508-0.103,15.074-0.103,23.072c2.01,0,3.571-0.001,5.132,0c18.663,0.01,37.328-0.167,55.986,0.085
		c18.018,0.243,32.316,12.292,36.084,29.821c0.175,0.813,0.599,1.575,0.906,2.36c0,113.75,0,227.5,0,341.25
		c-0.354,1.07-0.764,2.127-1.052,3.215c-3.826,14.45-12.925,23.73-27.273,27.889C465.315,487.122,463.975,487.575,462.625,488z
		 M172.884,110.101c0,9.552,0.109,18.587-0.032,27.619c-0.125,7.975-6.179,14.079-13.72,14.16
		c-7.697,0.082-13.81-6.149-14.011-14.326c-0.057-2.332-0.012-4.666-0.012-6.999c0-6.793,0-13.585,0-20.663
		c-1.763,0-2.908,0-4.053,0c-18.227,0-36.455-0.017-54.683,0.008c-8.112,0.011-11.474,3.35-11.475,11.389
		c-0.009,109.077-0.008,218.153-0.001,327.23c0,8.285,3.346,11.586,11.725,11.586c122.93,0.006,245.859,0.006,368.789,0
		c8.346,0,11.692-3.32,11.693-11.625c0.008-109.076,0.008-218.152-0.002-327.229c0-7.997-3.4-11.341-11.52-11.351
		c-18.228-0.023-36.456-0.013-54.684,0.004c-1.254,0.002-2.507,0.172-4.018,0.283c0,9.515,0.111,18.685-0.039,27.851
		c-0.105,6.43-4.179,11.519-10.154,13.262c-5.707,1.666-12.086-0.494-15.151-5.835c-1.446-2.521-2.224-5.732-2.321-8.664
		c-0.293-8.834-0.105-17.686-0.105-26.645c-28.297,0-56.063,0-84.228,0c0,9.413,0.125,18.569-0.037,27.721
		c-0.142,7.927-6.333,14.014-13.869,14.003c-7.538-0.011-13.685-6.125-13.83-14.044c-0.145-7.872-0.035-15.749-0.037-23.623
		c-0.001-1.379,0-2.758,0-4.111C228.716,110.101,201.055,110.101,172.884,110.101z"/>
	<path fill-rule="evenodd" clip-rule="evenodd" fill="#797979" d="M200.719,208.456c0,13.883,0,27.389,0,41.165
		c-18.44,0-36.711,0-55.297,0c0-13.593,0-27.205,0-41.165C163.67,208.456,182.044,208.456,200.719,208.456z"/>
	<path fill-rule="evenodd" clip-rule="evenodd" fill="#797979" d="M243.273,249.536c0-13.859,0-27.366,0-41.149
		c18.433,0,36.704,0,55.297,0c0,13.57,0,27.18,0,41.149C280.346,249.536,261.972,249.536,243.273,249.536z"/>
	<path fill-rule="evenodd" clip-rule="evenodd" fill="#797979" d="M396.653,249.763c-18.579,0-36.747,0-55.229,0
		c0-13.731,0-27.342,0-41.305c18.242,0,36.615,0,55.229,0C396.653,222.126,396.653,235.735,396.653,249.763z"/>
	<path fill-rule="evenodd" clip-rule="evenodd" fill="#797979" d="M200.722,278.461c0,13.87,0,27.376,0,41.156
		c-18.437,0-36.707,0-55.296,0c0-13.581,0-27.192,0-41.156C163.661,278.461,182.035,278.461,200.722,278.461z"/>
	<path fill-rule="evenodd" clip-rule="evenodd" fill="#797979" d="M243.467,278.271c18.53,0,36.697,0,55.145,0
		c0,13.769,0,27.378,0,41.306c-18.243,0-36.514,0-55.145,0C243.467,306.012,243.467,292.3,243.467,278.271z"/>
	<path fill-rule="evenodd" clip-rule="evenodd" fill="#797979" d="M396.715,278.398c0,13.747,0,27.252,0,41.126
		c-18.35,0-36.722,0-55.352,0c0-13.616,0-27.227,0-41.126C359.683,278.398,377.952,278.398,396.715,278.398z"/>
	<path fill-rule="evenodd" clip-rule="evenodd" fill="#797979" d="M200.722,348.459c0,13.875,0,27.381,0,41.159
		c-18.438,0-36.709,0-55.297,0c0-13.586,0-27.196,0-41.159C163.665,348.459,182.038,348.459,200.722,348.459z"/>
	<path fill-rule="evenodd" clip-rule="evenodd" fill="#797979" d="M243.451,348.332c18.368,0,36.638,0,55.175,0
		c0,13.739,0,27.349,0,41.26c-18.288,0-36.56,0-55.175,0C243.451,375.981,243.451,362.27,243.451,348.332z"/>
	<path fill-rule="evenodd" clip-rule="evenodd" fill="#797979" d="M341.273,389.536c0-13.859,0-27.366,0-41.149
		c18.434,0,36.704,0,55.297,0c0,13.57,0,27.181,0,41.149C378.346,389.536,359.973,389.536,341.273,389.536z"/>
</g>
</svg>
