<?xml version="1.0" encoding="utf-8"?>
<!-- Generator: Adobe Illustrator 16.0.3, SVG Export Plug-In . SVG Version: 6.00 Build 0)  -->
<!DOCTYPE svg PUBLIC "-//W3C//DTD SVG 1.1//EN" "http://www.w3.org/Graphics/SVG/1.1/DTD/svg11.dtd">
<svg version="1.1" id="Isolation_Mode" xmlns="http://www.w3.org/2000/svg" xmlns:xlink="http://www.w3.org/1999/xlink" x="0px"
	 y="0px" width="156.477px" height="133.938px" viewBox="0 0 156.477 133.938" enable-background="new 0 0 156.477 133.938"
	 xml:space="preserve">
<g>
	<path fill="#FFFFFF" d="M107.593,88.28h-0.717c-2.984,0-5.402-2.42-5.402-5.403V54.671c0-2.984,2.418-5.403,5.402-5.403h0.717
		c2.984,0,5.402,2.418,5.402,5.403v28.205C112.995,85.86,110.577,88.28,107.593,88.28"/>
	<path fill="#FFFFFF" d="M85.482,55.028v9.144H64.412v-9.144c0-3.182-2.58-5.76-5.763-5.76c-3.182,0-5.762,2.578-5.762,5.76v9.144
		h-0.071v7.217h0.071v11.131c0,3.185,2.58,5.763,5.762,5.763c3.183,0,5.763-2.578,5.763-5.763V71.388h21.069v11.131
		c0,3.185,2.58,5.763,5.765,5.763c3.182,0,5.76-2.578,5.76-5.763V55.028c0-3.182-2.578-5.76-5.76-5.76
		C88.063,49.268,85.482,51.846,85.482,55.028"/>
	<path fill="#FFFFFF" d="M156.477,52.876c0-1.992-1.615-3.61-3.608-3.61H142.73h-11.522h-10.136c-1.993,0-3.608,1.618-3.608,3.61
		s1.615,3.608,3.608,3.608h10.136V82.52c0,3.181,2.58,5.76,5.762,5.76c3.184,0,5.762-2.579,5.762-5.76V56.485h10.138
		C154.861,56.485,156.477,54.868,156.477,52.876"/>
	<path fill="#FFFFFF" d="M42.261,71.388h-10.02c-1.87,0-3.386-1.515-3.386-3.385v-0.447c0-1.87,1.516-3.385,3.386-3.385h10.02
		c1.868,0,3.385,1.515,3.385,3.385v0.447C45.646,69.873,44.129,71.388,42.261,71.388"/>
	<path fill="#FFFFFF" d="M56.081,3.224C43.46,9.97,33.616,21.227,28.696,34.841c10.316-9.261,23.956-14.892,38.912-14.892
		c14.952,0,28.589,5.631,38.906,14.892C101.596,21.227,91.751,9.97,79.135,3.224C71.941-0.622,63.276-0.622,56.081,3.224"/>
	<path fill="#FFFFFF" d="M3.359,80.298c6.746,12.62,18.003,22.465,31.617,27.386c-9.259-10.317-14.892-23.958-14.892-38.913
		c0-14.95,5.633-28.587,14.892-38.905c-13.61,4.917-24.869,14.762-31.617,27.378C-0.485,64.438-0.485,73.104,3.359,80.298"/>
	<path fill="#FFFFFF" d="M106.52,99.431c-4.926,13.616-14.777,24.869-27.395,31.631c-3.592,1.918-7.555,2.876-11.52,2.876
		s-7.932-0.958-11.53-2.876c-12.616-6.762-22.47-18.015-27.376-31.631c10.307,9.271,23.958,14.906,38.901,14.906
		C82.562,114.337,96.195,108.701,106.52,99.431"/>
</g>
</svg>
