<?xml version="1.0" encoding="utf-8"?>
<!-- Generator: Adobe Illustrator 16.0.3, SVG Export Plug-In . SVG Version: 6.00 Build 0)  -->
<!DOCTYPE svg PUBLIC "-//W3C//DTD SVG 1.1//EN" "http://www.w3.org/Graphics/SVG/1.1/DTD/svg11.dtd">
<svg version="1.1" id="Isolation_Mode" xmlns="http://www.w3.org/2000/svg" xmlns:xlink="http://www.w3.org/1999/xlink" x="0px"
	 y="0px" width="156.477px" height="133.938px" viewBox="0 0 156.477 133.938" enable-background="new 0 0 156.477 133.938"
	 xml:space="preserve">
<g>
	<path fill="#435AA8" d="M107.593,88.28h-0.717c-2.984,0-5.402-2.42-5.402-5.404V54.671c0-2.984,2.418-5.403,5.402-5.403h0.717
		c2.984,0,5.402,2.418,5.402,5.403v28.205C112.995,85.86,110.577,88.28,107.593,88.28"/>
	<path fill="#435AA8" d="M85.482,55.028v9.143h-21.07v-9.143c0-3.182-2.58-5.76-5.762-5.76s-5.762,2.578-5.762,5.76v9.143h-0.071
		v7.217h0.071v11.131c0,3.184,2.58,5.762,5.762,5.762s5.762-2.578,5.762-5.762V71.388h21.07v11.131c0,3.184,2.58,5.762,5.764,5.762
		c3.182,0,5.76-2.578,5.76-5.762V55.028c0-3.182-2.578-5.76-5.76-5.76C88.063,49.268,85.482,51.846,85.482,55.028"/>
	<path fill="#435AA8" d="M156.477,52.876c0-1.992-1.615-3.61-3.609-3.61H142.73h-11.523h-10.135c-1.994,0-3.609,1.618-3.609,3.61
		s1.615,3.609,3.609,3.609h10.135v26.035c0,3.18,2.58,5.76,5.762,5.76c3.184,0,5.762-2.58,5.762-5.76V56.485h10.137
		C154.861,56.485,156.477,54.868,156.477,52.876"/>
	<path fill="#435AA8" d="M42.261,71.388h-10.02c-1.87,0-3.385-1.515-3.385-3.385v-0.447c0-1.87,1.515-3.385,3.385-3.385h10.02
		c1.868,0,3.385,1.515,3.385,3.385v0.447C45.646,69.873,44.129,71.388,42.261,71.388"/>
	<path fill="#B93449" d="M56.081,3.224C43.46,9.97,33.616,21.227,28.696,34.841c10.316-9.261,23.956-14.892,38.912-14.892
		c14.952,0,28.589,5.631,38.906,14.892C101.596,21.227,91.751,9.97,79.135,3.224C71.941-0.622,63.276-0.622,56.081,3.224"/>
	<path fill="#435AA8" d="M3.359,80.298c6.746,12.62,18.003,22.465,31.617,27.386c-9.259-10.318-14.892-23.958-14.892-38.913
		c0-14.95,5.633-28.587,14.892-38.906C21.365,34.782,10.107,44.627,3.359,57.243C-0.485,64.438-0.485,73.104,3.359,80.298"/>
	<path fill="#66A33A" d="M106.52,99.431c-4.926,13.616-14.778,24.869-27.395,31.631c-3.592,1.918-7.554,2.876-11.519,2.876
		s-7.932-0.958-11.531-2.876c-12.616-6.762-22.469-18.015-27.376-31.631c10.307,9.271,23.958,14.906,38.902,14.906
		C82.562,114.337,96.195,108.701,106.52,99.431"/>
</g>
</svg>
