<?xml version="1.0" encoding="utf-8"?>
<!-- Generator: Adobe Illustrator 16.0.3, SVG Export Plug-In . SVG Version: 6.00 Build 0)  -->
<!DOCTYPE svg PUBLIC "-//W3C//DTD SVG 1.1//EN" "http://www.w3.org/Graphics/SVG/1.1/DTD/svg11.dtd" [
	<!ENTITY ns_flows "http://ns.adobe.com/Flows/1.0/">
	<!ENTITY ns_extend "http://ns.adobe.com/Extensibility/1.0/">
	<!ENTITY ns_ai "http://ns.adobe.com/AdobeIllustrator/10.0/">
	<!ENTITY ns_graphs "http://ns.adobe.com/Graphs/1.0/">
]>
<svg version="1.1" id="Layer_1" xmlns:x="&ns_extend;" xmlns:i="&ns_ai;" xmlns:graph="&ns_graphs;"
	 xmlns="http://www.w3.org/2000/svg" xmlns:xlink="http://www.w3.org/1999/xlink" xmlns:a="http://ns.adobe.com/AdobeSVGViewerExtensions/3.0/"
	 x="0px" y="0px" width="32px" height="32px" viewBox="240 240 32 32" enable-background="new 240 240 32 32" xml:space="preserve">
<g>
	<path fill="#FFFFFF" d="M269.026,254.411c-0.525,0-0.953-0.427-0.953-0.953c0-3.649-1.42-7.08-4-9.661
		c-0.372-0.373-0.372-0.976,0-1.348c0.373-0.373,0.977-0.373,1.349,0c2.939,2.94,4.558,6.851,4.558,11.009
		C269.979,253.984,269.553,254.411,269.026,254.411z"/>
	<path fill="#FFFFFF" d="M242.974,254.411c-0.526,0-0.953-0.427-0.953-0.953c0-4.158,1.619-8.068,4.56-11.008
		c0.373-0.372,0.976-0.372,1.349,0c0.372,0.373,0.372,0.976,0,1.349c-2.581,2.58-4.002,6.01-4.002,9.659
		C243.927,253.984,243.501,254.411,242.974,254.411z"/>
	<path fill="#FFFFFF" d="M256.001,271.25c-2.628,0-4.766-2.138-4.766-4.766c0-0.526,0.427-0.953,0.953-0.953
		c0.526,0,0.953,0.427,0.953,0.953c0,1.577,1.282,2.859,2.859,2.859c1.577,0,2.859-1.282,2.859-2.859
		c0-0.526,0.428-0.953,0.953-0.953c0.526,0,0.953,0.427,0.953,0.953C260.766,269.112,258.629,271.25,256.001,271.25z"/>
	<path fill="#FFFFFF" d="M266.485,267.437h-20.968c-1.227,0-2.225-0.998-2.225-2.224c0-0.651,0.284-1.267,0.778-1.69
		c1.933-1.633,3.034-4.007,3.034-6.521v-3.544c0-4.905,3.991-8.896,8.896-8.896c4.905,0,8.896,3.991,8.896,8.896v3.544
		c0,2.515,1.102,4.889,3.021,6.513c0.508,0.433,0.791,1.048,0.791,1.699C268.709,266.439,267.711,267.437,266.485,267.437z
		 M256.001,246.469c-3.855,0-6.99,3.135-6.99,6.989v3.544c0,3.076-1.348,5.981-3.698,7.968c-0.044,0.038-0.115,0.116-0.115,0.244
		c0,0.173,0.145,0.317,0.318,0.317h20.968c0.173,0,0.318-0.145,0.318-0.317c0-0.128-0.07-0.206-0.112-0.241
		c-2.353-1.989-3.7-4.895-3.7-7.971v-3.544C262.99,249.604,259.855,246.469,256.001,246.469z"/>
	<path fill="#FFFFFF" d="M256.001,246.469c-0.526,0-0.953-0.427-0.953-0.953v-3.813c0-0.526,0.427-0.953,0.953-0.953
		c0.526,0,0.953,0.427,0.953,0.953v3.813C256.953,246.042,256.527,246.469,256.001,246.469z"/>
</g>
</svg>
