<?xml version="1.0" encoding="utf-8"?>
<!-- Generator: Adobe Illustrator 16.0.3, SVG Export Plug-In . SVG Version: 6.00 Build 0)  -->
<!DOCTYPE svg PUBLIC "-//W3C//DTD SVG 1.1//EN" "http://www.w3.org/Graphics/SVG/1.1/DTD/svg11.dtd" [
	<!ENTITY ns_flows "http://ns.adobe.com/Flows/1.0/">
	<!ENTITY ns_extend "http://ns.adobe.com/Extensibility/1.0/">
	<!ENTITY ns_ai "http://ns.adobe.com/AdobeIllustrator/10.0/">
	<!ENTITY ns_graphs "http://ns.adobe.com/Graphs/1.0/">
]>
<svg version="1.1" id="Layer_1" xmlns:x="&ns_extend;" xmlns:i="&ns_ai;" xmlns:graph="&ns_graphs;"
	 xmlns="http://www.w3.org/2000/svg" xmlns:xlink="http://www.w3.org/1999/xlink" xmlns:a="http://ns.adobe.com/AdobeSVGViewerExtensions/3.0/"
	 x="0px" y="0px" width="16px" height="16px" viewBox="289.64 412.945 16 16" enable-background="new 289.64 412.945 16 16"
	 xml:space="preserve">
<path d="M305.422,426.779l-3.116-3.116c-0.141-0.141-0.331-0.219-0.531-0.219h-0.509c0.862-1.104,1.375-2.49,1.375-4
	c0-3.591-2.909-6.5-6.5-6.5c-3.591,0-6.5,2.909-6.5,6.5s2.91,6.5,6.5,6.5c1.51,0,2.897-0.512,4-1.375v0.51
	c0,0.2,0.078,0.391,0.219,0.531l3.115,3.115c0.294,0.294,0.77,0.294,1.06,0l0.885-0.884
	C305.713,427.548,305.713,427.073,305.422,426.779z M296.14,423.444c-2.21,0-4-1.787-4-4c0-2.209,1.788-4,4-4c2.209,0,4,1.787,4,4
	C300.141,421.653,298.353,423.444,296.14,423.444z"/>
</svg>
